<svg xmlns="http://www.w3.org/2000/svg" id="svg2" fill-rule="evenodd" xml:space="preserve" viewBox="0 0 56.638 59.566" version="1.1"><defs id="defs4"><style id="style6" type="text/css"/></defs><g id="Layer_x0020_1"><g id="_379384856"><path id="_379384688" d="M14.371 15.783v-4.234s.168-.816.72-1.177c.552-.36 7.19-4.645 7.461-4.838.272-.194.931-.048 1.155-.17.169-.174.095-.64.433-.887L30.733.191c.272-.225.81-.281 1.059 0l6.929 6.064c.22.202.027.94.2 1.132.193.216 1.021.075 1.244.216l6.93 6.159c.273.32.183 1.027.384 1.251.304.33 1.044.104 1.444.386l7.507 6.833c.226.24.282.866.096 1.154l-8.83 18.36-5.504 4.158c-.107.078-.423.02-.537.112-.074.066.034.338-.078.425l-3.326 2.64.86 4.137c.021.27-.066.54-.197.679l-6.834 5.39c-.469.38-.992.336-1.33.086l-7.148-4.277c-.407-.161-.382-.499-.596-.614-.256-.088-.468.275-.703.132l-6.995-4.197c-.293-.202-.165-.665-.549-.822-.406-.058-.46.302-.903 0l-4.779-2.82c-.17-.084-.386-.32-.48-.578l-2.33-6.83c-.109-.246.18-.575.103-.8-.052-.213-.483-.386-.578-.686l-2.404-7.75c-.125-.326.249-.81.169-1.111-.194-.407-.638-.222-.832-.629l-2.604-8.34c-.242-.52-.092-.98.198-1.188l7.7-4.812c.328-.17.73-.121 1.058 0l4.524 1.829c.401.185.755.177.77-.097z" fill="#1a1a1a"/><path id="_379384520" d="M36.188 16.03c3.12 2.818 3.445 3.492-.216.238s-4.034-4.04.216-.238z" fill="#4d4d4d"/><ellipse id="_379384424" rx=".303" ry=".492" cy="17.672" cx="22.825" fill="gray"/><ellipse id="_379384328" rx=".303" ry=".492" cy="19.608" cx="40.114" fill="#999"/><path id="_379384160" d="M45.335 24.247c2.768 2.5 3.057 3.099-.192.211-3.249-2.888-3.579-3.585.192-.211z" fill="#4d4d4d"/><ellipse id="_379384064" rx=".303" ry=".492" cy="27.782" cx="49.297" fill="gray"/><ellipse id="_374642888" rx=".303" ry=".492" cy="34.367" cx="40.568" fill="#666"/><path id="_374642768" d="M37.11 30.983c2.768 2.5 3.057 3.099-.192.211-3.248-2.888-3.579-3.585.192-.211z" fill="#666"/><ellipse id="_374642672" rx=".303" ry=".492" cy="11.54" cx="31.41" fill="gray"/><path id="_374642504" d="M27.619 8.121c2.768 2.501 3.057 3.1-.192.212-3.248-2.888-3.579-3.586.192-.211z" fill="#333"/><path id="_374642336" d="M19.17 14.526c2.768 2.5 3.057 3.099-.192.211-3.248-2.888-3.579-3.585.192-.211z" fill="#333"/><ellipse id="_374642240" rx=".475" ry=".492" cy="29.459" cx="23.524" fill="gray"/><ellipse id="_374642144" rx=".303" ry=".492" cy="25.622" cx="14.966" fill="gray"/><ellipse id="_374642048" rx=".303" ry=".361" cy="22.266" cx="7.063" fill="gray"/><ellipse id="_374641952" rx=".303" ry=".361" cy="32.623" cx="10.197" fill="#666"/><ellipse id="_374641856" rx=".393" ry=".407" cy="40.059" cx="26.226" fill="#666"/><ellipse id="_374641760" rx=".393" ry=".407" cy="50.111" cx="29.162" fill="#4d4d4d"/><ellipse id="_374641664" rx=".393" ry=".407" cy="46.25" cx="20.644" fill="#4d4d4d"/><ellipse id="_374641568" rx=".248" ry=".257" cy="42.194" cx="12.913" fill="#333"/><ellipse id="_374641472" rx=".303" ry=".361" cy="36.369" cx="18.034" fill="#666"/><path id="_374641304" d="M19.612 27.488c2.73 1.155 3.104 1.528-.089.209s-3.623-1.758.089-.209z" fill="#666"/><path id="_374641136" d="M11.208 24.081c2.73 1.155 3.104 1.528-.089.209-3.193-1.32-3.623-1.758.089-.209z" fill="#666"/><path id="_374640896" d="M3.763 20.816c2.242.948 2.549 1.255-.073.171-2.621-1.083-2.974-1.442.073-.171z" fill="#666"/><path id="_210333120" d="M16.498 10.07l6.229-3.948a.747.747 0 01.877.066l6.16 5.436a.47.47 0 01-.047.749l-6.137 4.266a.725.725 0 01-.877-.066l-6.252-5.754c-.235-.216-.22-.58.047-.75z" fill="#ffff25"/><path id="_210332952" d="M25.125 4.494L30.861.709a.692.692 0 01.82.062l5.946 5.267c.224.198.2.538-.044.701l-5.833 3.9a.685.685 0 01-.82-.061l-5.85-5.383a.442.442 0 01.046-.702z" fill="#2a4bb7"/><path id="_210332784" d="M33.801 12.261l5.646-3.83a.69.69 0 01.82.062l6.172 5.404c.225.196.195.529-.044.7l-5.56 3.992c-.239.17-.598.136-.82-.063l-6.258-5.564a.438.438 0 01.044-.701z" fill="#f03031"/><path id="_210332616" d="M42.296 20.074l5.646-4.193c.237-.177.6-.14.82.062l6.672 6.085c.22.2.19.524-.044.7l-5.424 4.083c-.234.176-.596.133-.82-.062l-6.894-5.974c-.225-.195-.194-.525.044-.701z" fill="#2ac44b"/><path id="_210332448" d="M25.035 18.121l6.19-4.42c.241-.172.596-.135.82.062l6.582 5.767c.224.196.188.52-.044.7l-4.561 3.537c-.231.18-.65.182-.82-.062-.538-.772-1.036-1.248-1.75-1.498l-4.89-1.714-1.571-1.671c-.204-.218-.197-.53.044-.701z" fill="#2a4bb7"/><path id="_210332280" d="M33.788 26.418l6.229-4.63c.253-.188.636-.143.877.067l6.751 5.89c.24.21.2.554-.047.749l-6.092 4.811c-.246.195-.638.145-.877-.066l-6.888-6.072c-.24-.211-.206-.56.047-.749z" fill="#ffff25"/><path id="_210332112" d="M48.007 30.381l-2.127 4.731c-.072.161-.14.3-.302.431l-5.638 4.574c-.163.132-.476.053-.429-.108l1.162-4.002a.84.84 0 01.301-.431l6.605-5.303c.163-.132.5-.053.428.108z" fill="#284299"/><path id="_210331944" d="M55.866 24.339l-2.4 4.777c-.08.16-.137.3-.301.43l-5.321 4.211c-.165.13-.499.052-.429-.108l2.07-4.728c.07-.16.134-.305.302-.432l5.65-4.258c.17-.127.51-.052.429.108z" fill="#b3b3b3"/><path id="_210331776" d="M52.64 31.062l-2.4 4.913c-.078.16-.13.307-.302.431L45.3 39.754c-.172.124-.497.051-.428-.109l1.706-3.956c.07-.16.14-.3.302-.431l5.332-4.304c.163-.132.507-.052.429.108z" fill="#b3b3b3"/><path id="_210331608" d="M45.282 36.922L43.2 41.199a1.27 1.27 0 01-.301.431l-4.444 3.557c-.152.139-.472.053-.428-.108l.965-3.348c.046-.16.14-.3.302-.432l5.56-4.485c.162-.132.506-.053.428.108z" fill="#1d8a35"/><path id="_210331440" d="M49.372 37.712l-1.93 3.772c-.068.135-.11.257-.254.363l-4.268 3.136c-.144.106-.421.043-.36-.091l1.618-3.603c.06-.134.11-.259.254-.363l4.58-3.305c.144-.105.429-.044.36.091z" fill="#b34322"/><path id="_210331200" d="M42.515 42.886l-1.282 3.343a.63.63 0 01-.2.285l-2.574 2.032c-.107.088-.264.026-.283-.071l-.404-2.046c-.019-.097.043-.148.15-.235l4.31-3.38c.108-.085.33-.035.283.072z" fill="#b3b31a"/><path id="_209452024" d="M39.572 38.42c-.732 2.532-1.042 2.906-.215-.05.826-2.957 1.19-3.389.215.05z" fill="#666"/><path id="_209447704" d="M27.264 38.631l6.445-4.755c.254-.188.438-.484.373-.797l-1.667-7.938c-.066-.312-.384-.446-.676-.327l-6.857 4.904c-.254.182-.44.485-.373.797l2.08 7.789c.08.308.42.515.675.327z" fill="#ffff25"/><path id="_206909576" d="M30.056 48.879l6.124-4.537c.254-.188.438-.484.373-.797l-1.765-7.407c-.074-.31-.385-.446-.676-.327l-6.286 4.48c-.254.18-.44.484-.373.795l1.927 7.466c.08.308.422.515.676.327z" fill="#2ac44b"/><path id="_206907728" d="M32.628 58.492l5.792-4.567c.222-.175.39-.436.332-.718l-1.697-7.205c-.054-.283-.343-.403-.602-.295l-6.064 4.504c-.224.166-.392.437-.333.719l1.97 7.267c.075.277.38.47.602.295z" fill="#ffff25"/><path id="_209451976" d="M30.952 23.245l-6.94 4.885c-.23.162-.6.215-.896.112L16.7 25.506c-.282-.12-.345-.35-.148-.53l6.52-4.6c.228-.161.602-.216.897-.113l6.836 2.452c.293.105.377.368.147.53z" fill="#2a4bb7"/><path id="_209452096" d="M21.875 19.846l-6.55 4.561c-.217.151-.567.2-.846.105l-6.057-2.556c-.266-.112-.325-.326-.14-.495l6.155-4.295c.215-.15.568-.202.846-.105l6.452 2.289c.277.098.356.344.14.495z" fill="#f03031"/><path id="_209452408" d="M13.237 16.685l-6.183 4.226a.922.922 0 01-.77.095l-4.789-1.963c-.243-.1-.295-.297-.126-.45l6.258-4.056a.94.94 0 01.77-.096l4.714 1.794c.247.094.326.314.126.45z" fill="#ffff25"/><path id="_209452624" d="M16.435 27.376l5.957 2.48c.227.095.445.39.516.704l1.9 7.637c.078.313-.081.5-.305.437l-5.745-2.765c-.223-.108-.445-.39-.515-.703l-2.113-7.353c-.09-.311.078-.537.305-.437z" fill="#ccc"/><path id="_209452768" d="M19.833 38.166l5.357 2.577c.226.109.444.39.515.704l1.946 7.116c.085.313-.081.5-.305.438l-5.56-2.692c-.223-.108-.445-.39-.515-.703l-1.743-7.002c-.078-.313.078-.538.305-.438z" fill="#c02627"/><path id="_210579888" d="M22.321 47.81l5.63 2.757c.205.1.402.352.466.636l1.8 7.023c.072.283-.073.453-.276.396l-5.702-3.484a1.046 1.046 0 01-.466-.637l-1.728-6.297c-.077-.282.071-.485.276-.395z" fill="#2a4bb7"/><path id="_210580200" d="M8.481 24.039l5.427 2.326c.203.087.398.348.461.63l2.09 7.29c.08.28-.073.447-.274.39l-5.448-2.636c-.2-.097-.399-.35-.46-.63l-2.07-6.979c-.082-.278.07-.48.273-.391z" fill="#2a4bb7"/><path id="_210580464" d="M1.091 20.892l5.052 2.139c.185.078.363.318.421.574l2.077 7.102c.075.255-.066.409-.249.357l-4.969-2.47c-.182-.09-.364-.319-.42-.575l-2.16-6.77c-.082-.253.063-.438.248-.356z" fill="#229d3c"/><path id="_210580728" d="M11.501 34.135l5.43 2.68c.215.105.42.367.487.664l1.864 6.782c.082.295-.076.472-.287.413l-5.45-2.737c-.211-.106-.42-.368-.486-.664l-1.846-6.725c-.08-.295.074-.507.288-.413z" fill="#c02627"/><path id="_210581088" d="M4.319 30.615l4.759 2.311c.213.104.42.368.486.664l1.84 6.665c.082.296-.077.473-.288.413l-4.552-2.334c-.21-.108-.42-.368-.486-.664L4.03 31.028c-.09-.293.074-.507.288-.413z" fill="#2a4bb7"/><path id="_210581232" d="M14.346 43.884l5.35 2.604c.209.102.41.358.474.647l1.885 6.52c.083.287-.075.46-.28.402l-5.617-3.394a1.055 1.055 0 01-.473-.647l-1.62-5.73c-.08-.286.073-.494.281-.402z" fill="#ccc"/><path id="_210581520" d="M7.314 40.334l4.476 2.178c.214.104.42.367.487.664l1.557 5.567c.082.295-.077.472-.288.413l-4.22-2.517a1.083 1.083 0 01-.485-.664l-1.814-5.228c-.1-.29.074-.507.288-.413z" fill="#ffff25"/><path id="_210581592" d="M27.718 26.8c-2.756 1.867-3.337 1.99-.142-.211 3.194-2.201 3.869-2.34.142.211z" fill="#666"/></g></g></svg>